<svg width="1148" height="246" viewBox="0 0 1148 246" fill="none" xmlns="http://www.w3.org/2000/svg">
<g clip-path="url(#clip0_1_11)">
<path d="M245.854 0H0V163.902H245.854V0Z" fill="white"/>
<path d="M81.9512 245.854V163.902H0L3.27506e-05 245.854H81.9512Z" fill="white"/>
<path d="M737.561 0H655.609V245.854H819.512V163.902H737.561V0Z" fill="white"/>
<path d="M327.805 0H409.756V81.9512H327.805V0Z" fill="white"/>
<path d="M327.805 163.902H409.756V245.854H327.805V163.902Z" fill="white"/>
<path d="M491.707 81.9512H409.756V163.902H491.707V245.854H573.658V163.902H491.707V81.9512Z" fill="white"/>
<path d="M491.707 81.9512V3.05176e-05H573.658V81.9512H491.707Z" fill="white"/>
<path d="M983.415 0H1147.32V163.902H1065.37V245.854H901.464V81.9512H983.415V0Z" fill="white"/>
</g>
<defs>
<clipPath id="clip0_1_11">
<rect width="1148" height="246" fill="white"/>
</clipPath>
</defs>
</svg>
