<svg width="1400" height="300" viewBox="0 0 1400 300" fill="none" xmlns="http://www.w3.org/2000/svg">
<rect x="1200" width="100" height="100" fill="black"/>
<rect x="1300" width="100" height="100" fill="black"/>
<rect x="1200" y="100" width="100" height="100" fill="black"/>
<rect x="1100" y="100" width="100" height="100" fill="black"/>
<rect x="1200" y="200" width="100" height="100" fill="black"/>
<rect x="1100" y="200" width="100" height="100" fill="black"/>
<rect x="1300" y="100" width="100" height="100" fill="black"/>
<rect x="800" y="200" width="100" height="100" fill="black"/>
<rect x="900" y="200" width="100" height="100" fill="black"/>
<rect x="800" y="100" width="100" height="100" fill="black"/>
<rect x="800" width="100" height="100" fill="black"/>
<rect x="500" y="100" width="100" height="100" fill="black"/>
<rect x="400" y="200" width="100" height="100" fill="black"/>
<rect x="600" y="200" width="100" height="100" fill="black"/>
<rect x="400" width="100" height="100" fill="black"/>
<rect x="600" width="100" height="100" fill="black"/>
<rect y="200" width="100" height="100" fill="black"/>
<rect y="100" width="100" height="100" fill="black"/>
<rect width="100" height="100" fill="black"/>
<rect x="100" y="100" width="100" height="100" fill="black"/>
<rect x="100" width="100" height="100" fill="black"/>
<rect x="200" y="100" width="100" height="100" fill="black"/>
<rect x="200" width="100" height="100" fill="black"/>
</svg>
